# xmcd
#
# Track frame offsets:
#	150
#	12738
#	26154
#	40994
#	55976
#	70422
#	83144
#	96985
#	110568
#	124759
#	139614
#	169622
#
# Disc length: 2408 seconds
#
# Revision: 0
# Processed by: cddbd v1.5.2PL0 Copyright (c) Steve Scherf et al.
# Submitted via: dBpowerAMP V4.0
#
DISCID=a909660c
DTITLE=Los Gofiones - La Trastienda
DYEAR=2004
DGENRE=Folklore
TTITLE0=Los Gofiones- Ven al baile
TTITLE1=Los Gofiones-Chipi chipi
TTITLE2=Los Gofiones-Llegastes tarde
TTITLE3=Los Gofiones-Toy contento
TTITLE4=Los Gofiones-Mi casita de papel
TTITLE5=Los Gofiones-Como arruyo de palma
TTITLE6=Los Gofiones-El pastorcillo
TTITLE7=Los Gofiones-Al son de la marimba
TTITLE8=Los Gofiones-Te lo voy a decir cantando
TTITLE9=Los Gofiones-México y Adelita
TTITLE10=Los Gofiones-Quiero ser como tú
TTITLE11=Los gofiones-Chipi chipi (estudio)
EXTD=
EXTT0=
EXTT1=
EXTT2=
EXTT3=
EXTT4=
EXTT5=
EXTT6=
EXTT7=
EXTT8=
EXTT9=
EXTT10=
EXTT11=
PLAYORDER=
